<?xml version="1.0" standalone="no"?>
<!DOCTYPE svg PUBLIC "-//W3C//DTD SVG 20010904//EN"
 "http://www.w3.org/TR/2001/REC-SVG-20010904/DTD/svg10.dtd">
<svg version="1.0" xmlns="http://www.w3.org/2000/svg"
 width="512.000000pt" height="512.000000pt" viewBox="0 0 512.000000 512.000000"
 preserveAspectRatio="xMidYMid meet">

<g transform="translate(0.000000,512.000000) scale(0.100000,-0.100000)"
fill="#000000" stroke="none">
<path d="M30 2560 l0 -2530 525 0 525 0 0 1628 c1 1407 3 1630 15 1646 14 19
15 19 34 2 11 -10 332 -492 713 -1072 381 -579 698 -1053 703 -1054 13 0 559
831 559 850 -1 8 -426 699 -946 1535 l-944 1520 -592 3 -592 2 0 -2530z"/>
<path d="M3883 5048 c-119 -189 -913 -1470 -913 -1473 0 -7 541 -878 554 -892
9 -10 60 61 226 312 117 179 222 332 232 342 17 15 19 15 33 -3 12 -16 14
-241 15 -1661 l0 -1643 530 0 530 0 0 2530 0 2530 -590 0 -590 0 -27 -42z"/>
<path d="M2763 3246 l-51 -84 276 -446 c152 -245 279 -446 282 -446 7 0 100
147 100 159 0 8 -532 873 -549 893 -3 4 -29 -30 -58 -76z"/>
</g>
</svg>
