<?xml version="1.0" standalone="no"?>
<!DOCTYPE svg PUBLIC "-//W3C//DTD SVG 20010904//EN"
 "http://www.w3.org/TR/2001/REC-SVG-20010904/DTD/svg10.dtd">
<svg version="1.0" xmlns="http://www.w3.org/2000/svg"
 width="512.000000pt" height="512.000000pt" viewBox="0 0 512.000000 512.000000"
 preserveAspectRatio="xMidYMid meet">

<g transform="translate(0.000000,512.000000) scale(0.100000,-0.100000)"
fill="#000000" stroke="none">
<path d="M2350 5063 c-175 -28 -327 -80 -444 -150 -279 -167 -463 -419 -538
-738 -29 -125 -36 -374 -14 -501 101 -584 571 -974 1173 -974 610 0 1092 418
1173 1017 16 113 8 326 -15 433 -104 478 -461 821 -942 905 -79 14 -327 19
-393 8z m428 -232 c155 -45 288 -128 423 -264 143 -142 214 -256 266 -424 25
-81 27 -101 27 -258 -1 -155 -3 -178 -27 -258 -49 -161 -114 -264 -256 -410
-204 -210 -422 -307 -685 -307 -263 1 -453 81 -655 275 -163 158 -244 282
-292 447 -26 92 -37 314 -20 412 40 227 155 418 359 592 132 113 248 172 413
209 97 22 351 14 447 -14z"/>
<path d="M1410 2594 c-228 -34 -420 -127 -543 -264 -249 -277 -397 -790 -397
-1381 0 -204 7 -271 42 -379 89 -278 289 -446 600 -505 74 -14 247 -15 1484
-13 l1399 3 85 26 c236 73 379 183 467 361 86 171 109 329 93 638 -16 308 -73
625 -149 821 -61 158 -158 330 -241 425 -132 153 -370 257 -615 271 -136 7
-138 7 -371 -143 -180 -115 -305 -172 -471 -215 -125 -33 -349 -33 -473 -1
-177 46 -296 101 -476 218 -66 43 -147 93 -182 111 -58 30 -71 33 -145 32 -45
-1 -93 -3 -107 -5z m265 -301 c179 -115 312 -180 467 -227 302 -91 588 -85
889 20 137 47 235 98 412 212 l148 94 61 -6 c84 -10 203 -49 263 -87 108 -67
234 -209 314 -352 110 -199 184 -525 201 -887 16 -360 -16 -467 -189 -632 -89
-85 -166 -129 -279 -155 -72 -17 -159 -18 -1412 -18 -1245 0 -1340 1 -1404 18
-126 32 -192 71 -291 171 -148 148 -175 228 -175 502 0 207 10 313 46 514 58
319 157 539 323 713 111 116 204 171 346 202 113 25 116 24 280 -82z"/>
</g>
</svg>
